<?xml version="1.0" standalone="no"?>
<!DOCTYPE svg PUBLIC "-//W3C//DTD SVG 20010904//EN"
 "http://www.w3.org/TR/2001/REC-SVG-20010904/DTD/svg10.dtd">
<svg version="1.0" xmlns="http://www.w3.org/2000/svg"
 width="500.000000pt" height="500.000000pt" viewBox="0 0 500.000000 500.000000"
 preserveAspectRatio="xMidYMid meet">
<metadata>
Created by potrace 1.14, written by Peter Selinger 2001-2017
</metadata>
<g transform="translate(0.000000,500.000000) scale(0.100000,-0.100000)"
fill="#000000" stroke="none">
<path d="M0 2500 l0 -2500 2500 0 2500 0 0 2500 0 2500 -2500 0 -2500 0 0
-2500z m898 243 l-3 -1168 -70 0 -70 0 -3 1168 -2 1167 75 0 75 0 -2 -1167z
m1142 838 l0 -49 -72 -7 c-113 -11 -148 -37 -148 -109 0 -46 401 -1202 411
-1184 4 7 93 249 199 537 183 500 192 526 181 562 -29 95 -109 171 -196 184
-75 12 -75 12 -75 66 l0 49 440 0 440 0 0 -48 0 -48 -70 -11 c-39 -6 -82 -18
-95 -27 -38 -25 -48 -81 -30 -168 16 -81 336 -1110 342 -1104 13 13 366 1043
378 1104 18 85 12 132 -18 161 -24 22 -91 40 -149 41 l-38 0 0 50 0 50 355 0
355 0 0 -50 c0 -48 -1 -50 -28 -50 -96 0 -203 -71 -245 -163 -13 -29 -156
-415 -318 -859 l-294 -808 -112 0 -112 0 -106 323 c-58 177 -154 470 -214 651
l-108 328 -25 -63 c-13 -35 -123 -328 -244 -652 l-219 -587 -105 2 -105 3
-277 765 c-153 421 -299 806 -324 857 -68 138 -127 184 -251 198 l-63 7 0 49
0 49 470 0 470 0 0 -49z"/>
</g>
</svg>
